<svg id="visual" viewBox="0 0 1080 600" width="1080" height="600" xmlns="http://www.w3.org/2000/svg" xmlns:xlink="http://www.w3.org/1999/xlink" version="1.1"><rect x="0" y="0" width="1080" height="600" fill="#ffffff"></rect><defs><linearGradient id="grad1_0" x1="44.4%" y1="100%" x2="100%" y2="0%"><stop offset="13.999999999999998%" stop-color="#ffffff" stop-opacity="1"></stop><stop offset="86%" stop-color="#ffffff" stop-opacity="1"></stop></linearGradient></defs><defs><linearGradient id="grad2_0" x1="0%" y1="100%" x2="55.6%" y2="0%"><stop offset="13.999999999999998%" stop-color="#ffffff" stop-opacity="1"></stop><stop offset="86%" stop-color="#ffffff" stop-opacity="1"></stop></linearGradient></defs><g transform="translate(1080, 600)"><path d="M-450 0C-440.8 -83.2 -431.7 -166.5 -389.7 -225C-347.7 -283.5 -272.9 -317.4 -202.5 -350.7C-132.1 -384.1 -66 -417.1 0 -450L0 0Z" fill="#dca641"></path></g><g transform="translate(0, 0)"><path d="M450 0C433.2 75.4 416.5 150.7 381.1 220C345.6 289.3 291.6 352.4 225 389.7C158.4 427 79.2 438.5 0 450L0 0Z" fill="#dca641"></path></g></svg>